<svg width="60" height="56" viewBox="0 0 60 56" fill="none" xmlns="http://www.w3.org/2000/svg">
<g filter="url(#filter0_d_1015_1132)">
<path d="M0 -2H56V37C56 45.2843 49.2843 52 41 52H15C6.71573 52 0 45.2843 0 37V-2Z" fill="#F3F4F0"/>
<path d="M1 -1H55V37C55 44.732 48.732 51 41 51H15C7.26801 51 1 44.732 1 37V-1Z" stroke="#383838" stroke-width="2"/>
</g>
<g clip-path="url(#clip0_1015_1132)">
<path d="M39.7891 39.3951H16.2539V29.1621H39.7891V39.3951Z" fill="#FFF35F"/>
<path d="M39.7889 39.3954V38.8837H16.7651V29.6739H39.2771V39.3951H39.7889V38.8834V39.3954H40.3006V29.1625C40.3006 29.0278 40.2462 28.896 40.1507 28.8006C40.0553 28.7055 39.9238 28.651 39.7889 28.651H16.2537C16.1187 28.651 15.987 28.7055 15.8918 28.8006C15.7967 28.896 15.7419 29.0278 15.7419 29.1625V39.3954C15.7419 39.5301 15.7964 39.6618 15.8918 39.7573C15.9873 39.8524 16.1187 39.9069 16.2537 39.9069H39.7889C39.9235 39.9069 40.0553 39.8524 40.1507 39.7573C40.2462 39.6618 40.3006 39.5301 40.3006 39.3954H39.7889Z" fill="#54596E"/>
<path d="M16.2537 39.3953H23.9284V41.4417H16.2537V39.3953Z" fill="#EDEDED"/>
<path d="M23.9282 41.4416V40.9301H16.7651V39.9066H23.4164V41.4416H23.9282V40.9298V41.4416H24.4396V39.3952C24.4396 39.2605 24.3852 39.1285 24.29 39.0333C24.1946 38.9379 24.0628 38.8834 23.9282 38.8834H16.2537C16.1187 38.8834 15.987 38.9379 15.8918 39.0333C15.7967 39.1285 15.7419 39.2602 15.7419 39.3952V41.4416C15.7419 41.5766 15.7964 41.7083 15.8918 41.8035C15.9873 41.8989 16.1187 41.9534 16.2537 41.9534H23.9282C24.0628 41.9534 24.1946 41.8989 24.2897 41.8035C24.3852 41.7083 24.4396 41.5766 24.4396 41.4416H23.9282Z" fill="#54596E"/>
<path d="M21.8817 43.4881H18.3004C17.17 43.4881 16.2537 42.5718 16.2537 41.4414H23.9284C23.9284 42.5718 23.0121 43.4881 21.8817 43.4881Z" fill="#EDEDED"/>
<path d="M21.8815 43.4884V42.9767H18.3001C17.4526 42.9752 16.7666 42.2893 16.7651 41.4418H16.2534V41.9535H23.9282V41.4418H23.4164C23.415 42.2893 22.729 42.9752 21.8815 42.9767V44.0002C23.2946 43.9999 24.4393 42.8549 24.4396 41.4418C24.4396 41.3071 24.3852 41.1753 24.2897 41.0799C24.1946 40.9848 24.0628 40.9303 23.9282 40.9303H16.2534C16.1187 40.9303 15.987 40.9848 15.8918 41.0799C15.7964 41.1753 15.7419 41.3071 15.7419 41.4418C15.7422 42.8549 16.8869 43.9996 18.3001 44.0002H21.8815V43.4884Z" fill="#54596E"/>
<path d="M32.1147 39.3953H39.7892V41.4417H32.1147V39.3953Z" fill="#EDEDED"/>
<path d="M39.789 41.4416V40.9301H32.6263V39.9066H39.2773V41.4416H39.789V40.9298V41.4416H40.3008V39.3952C40.3008 39.2605 40.2463 39.1285 40.1509 39.0333C40.0557 38.9379 39.924 38.8834 39.789 38.8834H32.1145C31.9799 38.8834 31.8478 38.9379 31.7527 39.0333C31.6575 39.1285 31.6028 39.2602 31.6028 39.3952V41.4416C31.6028 41.5766 31.6575 41.7083 31.7527 41.8035C31.8478 41.8989 31.9799 41.9534 32.1145 41.9534H39.789C39.9237 41.9534 40.0554 41.8989 40.1509 41.8035C40.2463 41.7083 40.3008 41.5766 40.3008 41.4416H39.789Z" fill="#54596E"/>
<path d="M37.7428 43.4881H34.1612C33.0311 43.4881 32.1147 42.5718 32.1147 41.4414H39.7892C39.7892 42.5718 38.8729 43.4881 37.7428 43.4881Z" fill="#EDEDED"/>
<path d="M37.7426 43.4884V42.9767H34.1609C33.3137 42.9752 32.6275 42.2893 32.626 41.4418H32.1145V41.9535H39.789V41.4418H39.2773C39.2758 42.2893 38.5898 42.9752 37.7426 42.9767V44.0002C39.1555 43.9999 40.3002 42.8549 40.3008 41.4418C40.3008 41.3071 40.246 41.1753 40.1509 41.0799C40.0554 40.9848 39.9237 40.9303 39.789 40.9303H32.1145C31.9799 40.9303 31.8478 40.9848 31.7527 41.0799C31.6575 41.1753 31.6028 41.3071 31.6028 41.4418C31.6031 42.8549 32.7481 43.9996 34.1609 44.0002H37.7426V43.4884Z" fill="#54596E"/>
<path d="M16.2537 22.5112H39.7891V29.1625H16.2537V22.5112Z" fill="#EDEDED"/>
<path d="M39.7889 22.511V21.9995H16.2534C16.1187 21.9995 15.987 22.054 15.8918 22.1491C15.7964 22.2446 15.7419 22.3763 15.7419 22.511V29.1622C15.7419 29.2969 15.7964 29.4289 15.8918 29.5241C15.987 29.6192 16.1187 29.674 16.2534 29.674H39.7889C39.9235 29.674 40.0553 29.6192 40.1507 29.5241C40.2459 29.4289 40.3006 29.2969 40.3006 29.1622V22.511C40.3006 22.3763 40.2459 22.2446 40.1507 22.1491C40.0553 22.054 39.9235 21.9995 39.7889 21.9995V22.511H39.2771V28.6508H16.7651V23.0227H39.7889V22.511H39.2771H39.7889Z" fill="#54596E"/>
<path d="M21.8813 24.0463H28.0212V29.1626H21.8813V24.0463Z" fill="#EDEDED"/>
<path d="M28.0217 24.046V23.5345H21.8819C21.7472 23.5345 21.6155 23.589 21.5203 23.6841C21.4249 23.7796 21.3701 23.9113 21.3701 24.046V29.1623C21.3701 29.297 21.4249 29.429 21.5203 29.5242C21.6155 29.6193 21.7472 29.6741 21.8819 29.6741H28.0217C28.1564 29.6741 28.2881 29.6193 28.3833 29.5242C28.4787 29.429 28.5332 29.297 28.5332 29.1623V24.046C28.5332 23.9113 28.4787 23.7796 28.3833 23.6841C28.2881 23.589 28.1564 23.5345 28.0217 23.5345V24.046H27.5099V28.6509H22.3936V24.5578H28.0217V24.046H27.5099H28.0217Z" fill="#54596E"/>
<path d="M28.022 24.0463H34.1615V29.1626H28.022V24.0463Z" fill="#54596E"/>
<path d="M34.1611 24.046V23.5345H28.0215C27.8868 23.5345 27.7548 23.589 27.6597 23.6841C27.5645 23.7796 27.5098 23.9113 27.5098 24.046V29.1623C27.5098 29.297 27.5645 29.429 27.6597 29.5242C27.7551 29.6193 27.8868 29.6741 28.0215 29.6741H34.1611C34.2957 29.6741 34.4275 29.6193 34.5229 29.5242C34.6181 29.429 34.6728 29.297 34.6728 29.1623V24.046C34.6728 23.9113 34.6181 23.7796 34.5229 23.6841C34.4275 23.589 34.2957 23.5345 34.1611 23.5345V24.046H33.6493V28.6509H28.533V24.5578H34.1611V24.046H33.6493H34.1611Z" fill="#54596E"/>
<path d="M25.9746 26.6045C25.9746 27.1698 25.5165 27.628 24.9514 27.628C24.3861 27.628 23.9282 27.1698 23.9282 26.6045C23.9282 26.0395 24.3861 25.5813 24.9514 25.5813C25.5165 25.5813 25.9746 26.0395 25.9746 26.6045Z" fill="#FF9999"/>
<path d="M16.2534 24.5578H39.2771C39.5599 24.5578 39.7889 24.3285 39.7889 24.046C39.7889 23.7635 39.5599 23.5345 39.2771 23.5345H16.2534C15.9709 23.5345 15.7419 23.7635 15.7419 24.046C15.7419 24.3285 15.9709 24.5578 16.2534 24.5578Z" fill="#54596E"/>
<path d="M13.1836 28.1392H19.3234V30.6973H13.1836V28.1392Z" fill="#EDEDED"/>
<path d="M19.3231 30.6971V30.1856H13.6951V28.6504H18.8114V30.6971H19.3231V30.1856V30.6971H19.8349V28.1389C19.8349 28.0042 19.7801 27.8725 19.685 27.777C19.5896 27.6819 19.4578 27.6274 19.3231 27.6274H13.1833C13.0487 27.6274 12.9169 27.6819 12.8218 27.777C12.7263 27.8725 12.6719 28.0042 12.6719 28.1389V30.6971C12.6719 30.8317 12.7263 30.9635 12.8218 31.0589C12.9169 31.1541 13.0487 31.2085 13.1833 31.2085H19.3231C19.4578 31.2085 19.5896 31.1541 19.685 31.0589C19.7801 30.9635 19.8349 30.8317 19.8349 30.6971H19.3231Z" fill="#54596E"/>
<path d="M13.1836 30.6971H19.3234V33.2553H13.1836V30.6971Z" fill="#EDEDED"/>
<path d="M19.3231 33.2556V32.7442H13.6951V31.2089H18.8114V33.2556H19.3231V32.7442V33.2556H19.8349V30.6975C19.8349 30.5628 19.7801 30.4311 19.685 30.3356C19.5896 30.2405 19.4578 30.186 19.3231 30.186H13.1833C13.0487 30.186 12.9169 30.2405 12.8218 30.3356C12.7263 30.4311 12.6719 30.5628 12.6719 30.6975V33.2556C12.6719 33.3906 12.7263 33.5223 12.8218 33.6175C12.9169 33.7129 13.0487 33.7674 13.1833 33.7674H19.3231C19.4578 33.7674 19.5896 33.7129 19.685 33.6175C19.7801 33.5223 19.8349 33.3906 19.8349 33.2556H19.3231Z" fill="#54596E"/>
<path d="M15.2305 33.2557H17.2769V35.3024H15.2305V33.2557Z" fill="#EDEDED"/>
<path d="M17.2769 35.3022V34.7904H15.7422V33.7672H16.7654V35.3022H17.2769V34.7904V35.3022H17.7887V33.2555C17.7887 33.1208 17.7342 32.9891 17.6388 32.8936C17.5436 32.7985 17.4119 32.744 17.2769 32.744H15.2305C15.0958 32.744 14.9638 32.7985 14.8686 32.8936C14.7735 32.9891 14.7188 33.1208 14.7188 33.2555V35.3022C14.7188 35.4369 14.7735 35.5686 14.8686 35.6641C14.9641 35.7592 15.0958 35.814 15.2305 35.814H17.2769C17.4119 35.814 17.5436 35.7592 17.6388 35.6641C17.7342 35.5686 17.7887 35.4369 17.7887 35.3022H17.2769Z" fill="#54596E"/>
<path d="M36.7192 28.1392H42.8591V30.6973H36.7192V28.1392Z" fill="#EDEDED"/>
<path d="M42.8588 30.6971V30.1856H37.2307V28.6504H42.347V30.6971H42.8588V30.1856V30.6971H43.3703V28.1389C43.3703 28.0042 43.3158 27.8725 43.2204 27.777C43.1252 27.6819 42.9935 27.6274 42.8588 27.6274H36.719C36.5843 27.6274 36.4526 27.6819 36.3574 27.777C36.262 27.8725 36.2075 28.0042 36.2075 28.1389V30.6971C36.2075 30.8317 36.262 30.9635 36.3574 31.0589C36.4526 31.1541 36.5843 31.2085 36.719 31.2085H42.8588C42.9935 31.2085 43.1252 31.1541 43.2204 31.0589C43.3158 30.9635 43.3703 30.8317 43.3703 30.6971H42.8588Z" fill="#54596E"/>
<path d="M36.7192 30.6971H42.8591V33.2553H36.7192V30.6971Z" fill="#EDEDED"/>
<path d="M42.8588 33.2556V32.7442H37.2307V31.2089H42.347V33.2556H42.8588V32.7442V33.2556H43.3703V30.6975C43.3703 30.5628 43.3158 30.4311 43.2204 30.3356C43.1252 30.2405 42.9935 30.186 42.8588 30.186H36.719C36.5843 30.186 36.4526 30.2405 36.3574 30.3356C36.262 30.4311 36.2075 30.5628 36.2075 30.6975V33.2556C36.2075 33.3906 36.262 33.5223 36.3574 33.6175C36.4526 33.7129 36.5843 33.7674 36.719 33.7674H42.8588C42.9935 33.7674 43.1252 33.7129 43.2204 33.6175C43.3158 33.5223 43.3703 33.3906 43.3703 33.2556H42.8588Z" fill="#54596E"/>
<path d="M24.9512 14.8368H31.0907V17.395H24.9512V14.8368Z" fill="#54596E"/>
<path d="M31.0912 17.3947V16.883H25.4631V15.348H30.5797V17.3947H31.0912V16.883V17.3947H31.603V14.8366C31.603 14.7016 31.5482 14.5699 31.4531 14.4747C31.3576 14.3793 31.2259 14.3248 31.0912 14.3248H24.9517C24.817 14.3248 24.685 14.3793 24.5898 14.4747C24.4947 14.5699 24.4399 14.7016 24.4399 14.8366V17.3947C24.4399 17.5294 24.4947 17.6611 24.5898 17.7566C24.6853 17.8517 24.817 17.9062 24.9517 17.9062H31.0912C31.2259 17.9062 31.3576 17.8517 31.4531 17.7566C31.5482 17.6611 31.603 17.5294 31.603 17.3947H31.0912Z" fill="#54596E"/>
<path d="M38.7656 33.2557H40.812V35.3024H38.7656V33.2557Z" fill="#EDEDED"/>
<path d="M40.8123 35.3022V34.7904H39.2773V33.7672H40.3008V35.3022H40.8123V34.7904V35.3022H41.324V33.2555C41.324 33.1208 41.2693 32.9891 41.1741 32.8936C41.0787 32.7985 40.947 32.744 40.8123 32.744H38.7659C38.6312 32.744 38.4992 32.7985 38.404 32.8936C38.3089 32.9891 38.2542 33.1208 38.2542 33.2555V35.3022C38.2542 35.4369 38.3089 35.5686 38.404 35.6641C38.4995 35.7592 38.6312 35.814 38.7659 35.814H40.8123C40.947 35.814 41.079 35.7592 41.1741 35.6641C41.2693 35.5686 41.324 35.4369 41.324 35.3022H40.8123Z" fill="#54596E"/>
<path d="M31.6347 18.7175L35.548 19.9181C37.0335 20.3737 38.6077 19.5387 39.0635 18.053C39.5191 16.5669 38.6841 14.993 37.1983 14.5375L30.5948 12.5118L29.7695 15.202C29.3137 16.6878 30.1489 18.2617 31.6347 18.7175Z" fill="#EDEDED"/>
<path d="M31.6349 18.7177L31.485 19.2066L35.398 20.4075C35.7221 20.5067 36.0509 20.5542 36.3744 20.5542C37.7981 20.5545 39.1129 19.6337 39.5529 18.203C39.6522 17.8789 39.6999 17.5501 39.6999 17.2266C39.7002 15.8029 38.7794 14.4878 37.3487 14.0484L30.7454 12.0228C30.4752 11.9399 30.1892 12.0916 30.1063 12.3618L29.2808 15.052C29.1815 15.3758 29.1338 15.7048 29.1338 16.0281C29.1335 17.4518 30.0542 18.7666 31.485 19.2066L31.6349 18.7177L31.785 18.2285C30.7938 17.9252 30.1573 17.012 30.157 16.0281C30.157 15.805 30.1895 15.5781 30.2589 15.3521L30.9343 13.1511L37.0483 15.0265C38.0393 15.3295 38.6761 16.2426 38.6764 17.2266C38.6764 17.45 38.6439 17.6769 38.5745 17.9029C38.2715 18.8939 37.3581 19.5307 36.3741 19.531C36.151 19.531 35.9238 19.4985 35.6981 19.4291L31.785 18.2285L31.6349 18.7177Z" fill="#54596E"/>
<path d="M24.4077 18.7175L20.4944 19.9181C19.0089 20.3737 17.435 19.5387 16.9789 18.053C16.5233 16.5669 17.3583 14.993 18.8441 14.5375L25.4476 12.5118L26.2729 15.202C26.7287 16.6878 25.8938 18.2617 24.4077 18.7175Z" fill="#EDEDED"/>
<path d="M24.4073 18.7177L24.2574 18.2285L20.344 19.4291C20.1183 19.4985 19.8914 19.5307 19.668 19.531C18.6843 19.5307 17.7709 18.8939 17.4676 17.9029C17.3985 17.6769 17.3657 17.45 17.3657 17.2266C17.366 16.2426 18.0025 15.3295 18.9935 15.0268L25.1078 13.1511L25.7832 15.3521C25.8526 15.5781 25.8854 15.805 25.8854 16.0281C25.8848 17.012 25.2484 17.9252 24.2574 18.2285L24.4073 18.7177L24.5574 19.2066C25.9882 18.7668 26.9089 17.4518 26.9083 16.0281C26.9083 15.7048 26.8609 15.3758 26.7617 15.052L25.9361 12.3618C25.8532 12.0916 25.5672 11.9399 25.297 12.0228L18.6937 14.0484C17.2627 14.4878 16.3419 15.8029 16.3425 17.2266C16.3425 17.5501 16.39 17.8792 16.4895 18.203C16.9295 19.6337 18.2443 20.5545 19.668 20.5542C19.9912 20.5542 20.3203 20.5067 20.6438 20.4075L24.5574 19.2066L24.4073 18.7177Z" fill="#54596E"/>
<path d="M25.4629 20.4647H30.5795V22.5111H25.4629V20.4647Z" fill="#EDEDED"/>
<path d="M30.5792 20.4644V19.9526H25.4626C25.328 19.9526 25.1962 20.0071 25.1011 20.1025C25.0056 20.1977 24.9512 20.3294 24.9512 20.4644V22.5108C24.9512 22.6455 25.0056 22.7772 25.1011 22.8726C25.1962 22.9678 25.328 23.0222 25.4626 23.0222H30.5792C30.7139 23.0222 30.8457 22.9678 30.9408 22.8726C31.0362 22.7772 31.0907 22.6455 31.0907 22.5108V20.4644C31.0907 20.3294 31.0362 20.1977 30.9408 20.1025C30.8457 20.0071 30.7139 19.9526 30.5792 19.9526V20.4644H30.0675V21.9993H25.9744V20.9758H30.5792V20.4644H30.0675H30.5792Z" fill="#54596E"/>
<path d="M26.4863 16.8828H29.556V20.4645H26.4863V16.8828Z" fill="#EDEDED"/>
<path d="M29.5562 16.8832V16.3717H26.4866C26.3519 16.3717 26.2199 16.4262 26.1247 16.5213C26.0296 16.6167 25.9749 16.7485 25.9749 16.8832V20.4648C25.9749 20.5995 26.0296 20.7312 26.1247 20.8264C26.2202 20.9218 26.3519 20.9763 26.4866 20.9763H29.5562C29.6912 20.9763 29.8229 20.9218 29.9181 20.8264C30.0135 20.7312 30.068 20.5995 30.068 20.4648V16.8832C30.068 16.7485 30.0135 16.6167 29.9181 16.5213C29.8229 16.4262 29.6912 16.3717 29.5562 16.3717V16.8832H29.0448V19.9531H26.9981V17.3949H29.5562V16.8832H29.0448H29.5562Z" fill="#54596E"/>
<path d="M36.4632 16.6276C36.4632 17.6166 35.6616 18.4182 34.6727 18.4182C33.6837 18.4182 32.8818 17.6166 32.8818 16.6276C32.8818 15.6384 33.6837 14.8368 34.6727 14.8368C35.6616 14.8368 36.4632 15.6384 36.4632 16.6276Z" fill="#999999"/>
<path d="M36.463 16.6274H36.9748C36.9745 15.3556 35.9442 14.3251 34.6725 14.3248C33.4004 14.3251 32.3705 15.3556 32.3699 16.6274C32.3705 17.8989 33.4004 18.9294 34.6725 18.9297C35.9442 18.9294 36.9745 17.8989 36.9748 16.6274H35.9515C35.9501 17.3333 35.3786 17.905 34.6725 17.9065C33.9663 17.905 33.3945 17.3333 33.3934 16.6274C33.3945 15.9213 33.9663 15.3495 34.6725 15.3483C35.3786 15.3495 35.9501 15.9213 35.9515 16.6274H36.463Z" fill="#54596E"/>
<path d="M23.4168 16.6276C23.4168 17.6166 22.6149 18.4182 21.626 18.4182C20.637 18.4182 19.8354 17.6166 19.8354 16.6276C19.8354 15.6384 20.637 14.8368 21.626 14.8368C22.6149 14.8368 23.4168 15.6384 23.4168 16.6276Z" fill="#999999"/>
<path d="M23.4166 16.6274H23.9283C23.9278 15.3556 22.8978 14.3251 21.6258 14.3248C20.354 14.3251 19.3238 15.3556 19.3235 16.6274C19.3238 17.8989 20.354 18.9294 21.6258 18.9297C22.8978 18.9294 23.9278 17.8989 23.9283 16.6274H22.9048C22.9037 17.3333 22.3319 17.905 21.6258 17.9065C20.9196 17.905 20.3482 17.3333 20.3467 16.6274C20.3482 15.9213 20.9196 15.3495 21.6258 15.3483C22.3319 15.3495 22.9037 15.9213 22.9048 16.6274H23.4166Z" fill="#54596E"/>
<path d="M21.8814 16.1156C21.8814 16.5395 21.5377 16.8829 21.1141 16.8829C20.6901 16.8829 20.3464 16.5395 20.3464 16.1156C20.3464 15.6917 20.6901 15.3483 21.1141 15.3483C21.5377 15.3483 21.8814 15.6917 21.8814 16.1156Z" fill="white"/>
<path d="M34.6726 16.1156C34.6726 16.5395 34.3289 16.8829 33.905 16.8829C33.4814 16.8829 33.1377 16.5395 33.1377 16.1156C33.1377 15.6917 33.4814 15.3483 33.905 15.3483C34.3289 15.3483 34.6726 15.6917 34.6726 16.1156Z" fill="white"/>
<path d="M39.2776 36.8365H16.7656V38.8832H39.2776V36.8365Z" fill="#EEE361"/>
<path d="M32.1146 38.8833H23.9284C24.0631 38.8833 24.1948 38.9377 24.2902 39.0331C24.3854 39.1283 24.4398 39.26 24.4398 39.395H31.6029C31.6029 39.2603 31.6576 39.1283 31.7528 39.0331C31.8479 38.9377 31.9799 38.8833 32.1146 38.8833ZM16.7654 36.8365H16.2539V38.8833H16.7654V36.8365ZM39.7891 36.8365H39.2773V38.8833H39.7891V36.8365Z" fill="#54596E"/>
<path d="M23.9284 38.8834H16.2539V39.3952H24.4398C24.4398 39.2605 24.3854 39.1285 24.2902 39.0333C24.1948 38.9379 24.0631 38.8834 23.9284 38.8834Z" fill="#54596E"/>
<path d="M39.789 38.8834H32.1145C31.9799 38.8834 31.8478 38.9379 31.7527 39.0333C31.6575 39.1285 31.6028 39.2602 31.6028 39.3952H39.789V38.8834Z" fill="#54596E"/>
</g>
<defs>
<filter id="filter0_d_1015_1132" x="0" y="-2" width="60" height="58" filterUnits="userSpaceOnUse" color-interpolation-filters="sRGB">
<feFlood flood-opacity="0" result="BackgroundImageFix"/>
<feColorMatrix in="SourceAlpha" type="matrix" values="0 0 0 0 0 0 0 0 0 0 0 0 0 0 0 0 0 0 127 0" result="hardAlpha"/>
<feOffset dx="2" dy="2"/>
<feGaussianBlur stdDeviation="1"/>
<feColorMatrix type="matrix" values="0 0 0 0 0 0 0 0 0 0 0 0 0 0 0 0 0 0 0.28 0"/>
<feBlend mode="normal" in2="BackgroundImageFix" result="effect1_dropShadow_1015_1132"/>
<feBlend mode="normal" in="SourceGraphic" in2="effect1_dropShadow_1015_1132" result="shape"/>
</filter>
<clipPath id="clip0_1015_1132">
<rect width="32" height="32" fill="white" transform="translate(12 12)"/>
</clipPath>
</defs>
</svg>
